<?xml version="1.0" standalone="no"?>
<!DOCTYPE svg PUBLIC "-//W3C//DTD SVG 20010904//EN"
 "http://www.w3.org/TR/2001/REC-SVG-20010904/DTD/svg10.dtd">
<svg version="1.0" xmlns="http://www.w3.org/2000/svg"
 width="512.000000pt" height="512.000000pt" viewBox="0 0 512.000000 512.000000"
 preserveAspectRatio="xMidYMid meet">
<metadata>
Created by potrace 1.14, written by Peter Selinger 2001-2017
</metadata>
<g transform="translate(0.000000,512.000000) scale(0.100000,-0.100000)"
fill="#000000" stroke="none">
<path d="M415 5110 c-152 -31 -295 -141 -360 -277 -58 -122 -55 20 -55 -2278
1 -2251 -1 -2147 48 -2256 68 -149 219 -265 379 -289 46 -7 754 -10 2178 -8
l2110 3 68 27 c158 63 272 186 313 335 18 65 19 149 19 2203 l0 2135 -23 65
c-53 155 -176 275 -332 326 -14 4 -32 10 -40 13 -25 9 -4262 10 -4305 1z"/>
</g>
</svg>
